<?xml version="1.0" standalone="no"?>
<!DOCTYPE svg PUBLIC "-//W3C//DTD SVG 20010904//EN"
 "http://www.w3.org/TR/2001/REC-SVG-20010904/DTD/svg10.dtd">
<svg version="1.0" xmlns="http://www.w3.org/2000/svg"
 width="688.000000pt" height="1000.000000pt" viewBox="0 0 688.000000 1000.000000"
 preserveAspectRatio="xMidYMid meet">

<g transform="translate(0.000000,1000.000000) scale(0.100000,-0.100000)"
fill="#000000" stroke="none">
<path d="M3350 9875 c0 -63 4 -105 10 -105 6 0 10 42 10 105 0 63 -4 105 -10
105 -6 0 -10 -42 -10 -105z"/>
<path d="M1630 9870 c0 -82 3 -100 15 -100 11 0 15 12 15 45 l0 45 45 0 45 0
0 -45 c0 -33 4 -45 15 -45 12 0 15 18 15 100 0 82 -3 100 -15 100 -11 0 -15
-11 -15 -40 l0 -40 -45 0 -45 0 0 40 c0 29 -4 40 -15 40 -12 0 -15 -18 -15
-100z"/>
<path d="M3010 9870 c0 -60 4 -100 10 -100 6 0 10 20 10 45 l0 45 50 0 50 0 0
-45 c0 -25 5 -45 10 -45 6 0 10 40 10 100 0 60 -4 100 -10 100 -5 0 -10 -20
-10 -45 l0 -45 -50 0 -50 0 0 45 c0 25 -4 45 -10 45 -6 0 -10 -40 -10 -100z"/>
<path d="M600 9905 c0 -9 5 -15 11 -13 6 2 11 8 11 13 0 5 -5 11 -11 13 -6 2
-11 -4 -11 -13z"/>
<path d="M670 9815 c0 -63 4 -105 10 -105 6 0 10 42 10 105 0 63 -4 105 -10
105 -6 0 -10 -42 -10 -105z"/>
<path d="M470 9810 c0 -60 4 -100 10 -100 6 0 10 20 10 45 0 45 0 45 35 45 19
0 35 5 35 10 0 6 -16 10 -35 10 -33 0 -35 2 -35 35 0 33 2 35 35 35 19 0 35 5
35 10 0 6 -20 10 -45 10 l-45 0 0 -100z"/>
<path d="M1840 9890 c-41 -41 -12 -120 45 -120 33 0 75 42 75 75 0 34 -33 65
-70 65 -17 0 -39 -9 -50 -20z m71 -10 c26 -15 26 -66 -1 -80 -14 -8 -26 -8
-40 0 -26 14 -27 65 -2 79 21 13 20 13 43 1z"/>
<path d="M2000 9840 c0 -56 3 -70 15 -70 11 0 15 13 15 54 0 36 4 56 13 59 25
10 40 -11 45 -62 6 -63 22 -68 22 -7 0 48 20 79 45 70 11 -4 15 -22 15 -60 0
-41 4 -54 15 -54 12 0 15 13 15 59 0 72 -16 91 -62 73 -23 -8 -35 -8 -49 1
-15 9 -23 9 -39 -1 -12 -7 -20 -8 -20 -2 0 5 -7 10 -15 10 -12 0 -15 -14 -15
-70z"/>
<path d="M2259 9892 c-43 -36 -18 -122 37 -122 30 0 54 10 54 22 0 6 -11 7
-25 4 -27 -7 -65 8 -65 24 0 6 23 10 50 10 43 0 50 3 50 20 0 25 -34 60 -59
60 -10 0 -29 -8 -42 -18z m61 -17 c17 -21 9 -27 -31 -23 -31 3 -32 4 -15 21
21 21 30 21 46 2z"/>
<path d="M3211 9884 c-12 -15 -21 -33 -21 -41 0 -18 20 -56 34 -65 16 -11 64
-10 71 2 4 6 -8 10 -29 10 -25 0 -38 6 -46 20 -10 19 -8 20 40 20 46 0 50 2
50 23 0 29 -29 57 -58 57 -11 0 -30 -12 -41 -26z m77 -16 c3 -15 -4 -18 -38
-18 -38 0 -40 1 -30 21 14 25 63 23 68 -3z"/>
<path d="M3420 9810 c0 -60 4 -100 10 -100 6 0 10 18 10 40 0 38 1 39 20 28
29 -19 74 8 78 46 8 67 -28 103 -77 76 -14 -7 -21 -7 -21 0 0 5 -4 10 -10 10
-6 0 -10 -40 -10 -100z m98 39 c4 -43 -16 -64 -53 -55 -20 5 -25 12 -25 39 0
40 17 59 50 55 21 -3 26 -9 28 -39z"/>
<path d="M600 9780 c0 -40 4 -70 10 -70 6 0 10 30 10 70 0 40 -4 70 -10 70 -6
0 -10 -30 -10 -70z"/>
<path d="M750 9830 c-55 -55 15 -152 80 -110 11 7 6 10 -20 10 -34 0 -60 14
-60 32 0 4 23 8 51 8 51 0 51 0 45 28 -13 52 -60 68 -96 32z m68 -12 c21 -21
13 -28 -28 -28 -22 0 -40 4 -40 8 0 14 23 32 40 32 9 0 21 -5 28 -12z"/>
<path d="M2642 9376 c-23 -8 -54 -21 -67 -30 l-25 -17 2 -222 3 -222 46 -23
c50 -25 149 -41 149 -25 0 6 -23 13 -51 16 -28 4 -67 14 -87 24 l-37 18 -3
192 -2 192 47 -22 c69 -31 217 -31 286 0 l47 22 0 -75 c0 -44 4 -74 10 -74 7
0 10 37 8 103 l-3 102 -50 25 c-61 30 -204 38 -273 16z m263 -32 c22 -12 40
-27 40 -34 0 -7 -18 -22 -39 -33 -80 -42 -286 -30 -327 19 -11 14 -9 19 11 34
39 30 88 39 185 37 69 -2 100 -8 130 -23z"/>
<path d="M3350 9110 l0 -280 120 0 c73 0 120 4 120 10 0 6 -43 10 -110 10
l-110 0 0 260 0 260 110 0 110 0 0 -80 0 -80 80 0 80 0 0 -60 c0 -33 4 -60 10
-60 6 0 10 31 10 73 l0 72 -78 78 -77 77 -133 0 -132 0 0 -280z m330 185 l64
-65 -67 0 -67 0 0 65 c0 36 1 65 3 65 1 0 32 -29 67 -65z"/>
<path d="M4280 9110 l0 -280 153 1 c91 1 142 4 127 9 -14 4 -78 8 -142 9
l-118 1 0 260 0 260 110 0 110 0 0 -80 0 -80 80 0 80 0 0 -35 c0 -19 5 -35 10
-35 6 0 10 21 10 48 0 46 -2 50 -78 125 l-77 77 -133 0 -132 0 0 -280z m330
185 l64 -65 -67 0 -67 0 0 65 c0 36 1 65 3 65 1 0 32 -29 67 -65z"/>
<path d="M5210 9110 l0 -280 130 0 c80 0 130 4 130 10 0 6 -47 10 -120 10
l-120 0 0 260 0 260 110 0 110 0 0 -80 0 -80 80 0 c73 0 80 -2 80 -20 0 -11 5
-20 10 -20 6 0 10 15 10 33 0 27 -12 45 -78 110 l-77 77 -133 0 -132 0 0 -280z
m330 185 l64 -65 -67 0 -67 0 0 65 c0 36 1 65 3 65 1 0 32 -29 67 -65z"/>
<path d="M6130 9380 c0 -6 67 -10 180 -10 l180 0 0 -30 0 -30 -125 0 c-77 0
-125 -4 -125 -10 0 -5 16 -10 35 -10 l35 0 0 -70 0 -70 -100 0 c-60 0 -100 -4
-100 -10 0 -5 5 -10 10 -10 6 0 10 -27 10 -60 l0 -60 -80 0 -80 0 0 60 0 60
30 0 c17 0 30 5 30 10 0 6 -13 10 -30 10 -28 0 -30 2 -30 40 0 22 -4 40 -10
40 -6 0 -10 -73 -10 -200 l0 -200 280 0 280 0 0 280 0 280 -190 0 c-120 0
-190 -4 -190 -10z m360 -160 l0 -70 -80 0 -80 0 0 70 0 70 80 0 80 0 0 -70z
m-180 -150 l0 -60 -80 0 -80 0 0 60 0 60 80 0 80 0 0 -60z m180 0 l0 -60 -80
0 -80 0 0 60 0 60 80 0 80 0 0 -60z m-360 -150 l0 -70 -80 0 -80 0 0 70 0 70
80 0 80 0 0 -70z m180 0 l0 -70 -80 0 -80 0 0 70 0 70 80 0 80 0 0 -70z m180
0 l0 -70 -80 0 -80 0 0 70 0 70 80 0 80 0 0 -70z"/>
<path d="M5530 9133 l-35 -18 -3 -148 -3 -148 35 -14 c45 -19 147 -19 191 -1
l35 15 0 145 0 146 -27 17 c-39 26 -148 29 -193 6z m192 -21 c22 -22 -8 -36
-85 -40 -102 -5 -164 23 -104 48 31 14 173 8 189 -8z m-102 -55 c36 0 76 5 88
12 l22 12 0 -129 c0 -150 6 -142 -110 -142 -116 0 -110 -8 -110 142 l0 129 22
-12 c12 -7 52 -12 88 -12z"/>
<path d="M4570 9123 c-44 -16 -50 -33 -50 -138 0 -70 4 -106 13 -112 19 -15
47 -23 47 -14 0 5 -9 11 -20 14 -18 5 -20 14 -20 92 0 85 0 86 23 81 l22 -6
-22 11 c-36 19 -29 46 15 58 48 14 68 13 117 -4 50 -18 60 -10 12 10 -36 15
-107 19 -137 8z"/>
<path d="M2770 8950 l0 -160 160 0 160 0 0 160 0 160 -160 0 -160 0 0 -160z
m300 120 c0 -19 -7 -20 -140 -20 -133 0 -140 1 -140 20 0 19 7 20 140 20 133
0 140 -1 140 -20z m-200 -70 c0 -28 -2 -30 -40 -30 -38 0 -40 2 -40 30 0 28 2
30 40 30 38 0 40 -2 40 -30z m100 0 c0 -28 -2 -30 -40 -30 -38 0 -40 2 -40 30
0 28 2 30 40 30 38 0 40 -2 40 -30z m100 0 c0 -28 -2 -30 -40 -30 -38 0 -40 2
-40 30 0 28 2 30 40 30 38 0 40 -2 40 -30z m-200 -80 c0 -28 -2 -30 -40 -30
-38 0 -40 2 -40 30 0 28 2 30 40 30 38 0 40 -2 40 -30z m100 0 c0 -28 -2 -30
-40 -30 -38 0 -40 2 -40 30 0 28 2 30 40 30 38 0 40 -2 40 -30z m100 0 c0 -28
-2 -30 -40 -30 -38 0 -40 2 -40 30 0 28 2 30 40 30 38 0 40 -2 40 -30z m-200
-80 c0 -28 -2 -30 -40 -30 -38 0 -40 2 -40 30 0 28 2 30 40 30 38 0 40 -2 40
-30z m100 0 c0 -28 -2 -30 -40 -30 -38 0 -40 2 -40 30 0 28 2 30 40 30 38 0
40 -2 40 -30z m100 0 c0 -28 -2 -30 -40 -30 -38 0 -40 2 -40 30 0 28 2 30 40
30 38 0 40 -2 40 -30z"/>
<path d="M3614 9057 c-2 -7 -3 -69 -2 -138 l3 -124 135 0 135 0 0 135 0 135
-133 3 c-103 2 -134 0 -138 -11z m125 -74 l13 -28 14 28 c9 16 23 27 35 27
l21 0 -21 -36 c-26 -43 -26 -52 -1 -84 25 -32 25 -40 0 -40 -12 0 -25 10 -32
25 -6 14 -14 25 -18 25 -4 0 -12 -11 -18 -25 -7 -15 -20 -25 -32 -25 -21 0
-21 0 2 41 l23 41 -23 39 -23 39 24 0 c16 0 28 -9 36 -27z"/>
<path d="M4650 9063 c-45 -18 -50 -33 -50 -138 0 -127 3 -130 110 -130 107 0
110 3 110 130 0 90 -2 104 -20 120 -21 19 -119 31 -150 18z m113 -14 c49 -13
51 -44 5 -59 l-33 -10 33 5 33 5 -3 -88 -3 -87 -85 0 -85 0 -3 87 -3 88 33 -5
33 -5 -32 10 c-64 20 -29 66 52 69 11 1 37 -4 58 -10z"/>
<path d="M4698 8973 c6 -2 18 -2 25 0 6 3 1 5 -13 5 -14 0 -19 -2 -12 -5z"/>
<path d="M3790 8580 c0 -53 4 -90 10 -90 6 0 10 37 10 90 0 53 -4 90 -10 90
-6 0 -10 -37 -10 -90z"/>
<path d="M2627 8640 c-72 -57 -20 -168 68 -146 21 5 25 12 25 46 0 36 -3 40
-25 40 -14 0 -25 -4 -25 -10 0 -5 9 -10 20 -10 15 0 20 -7 20 -25 0 -22 -4
-25 -33 -25 -41 0 -67 26 -67 67 0 39 28 63 74 63 22 0 35 4 31 10 -10 17 -61
11 -88 -10z"/>
<path d="M3330 8575 l0 -85 40 0 c22 0 40 5 40 10 0 6 -16 10 -35 10 -32 0
-35 2 -35 30 0 28 3 30 35 30 19 0 35 5 35 10 0 6 -16 10 -35 10 -31 0 -35 3
-35 25 0 22 4 25 35 25 19 0 35 5 35 10 0 6 -18 10 -40 10 l-40 0 0 -85z"/>
<path d="M4030 8575 c0 -50 4 -85 10 -85 6 0 10 14 10 30 0 22 5 30 18 30 29
0 62 29 62 55 0 33 -26 55 -66 55 l-34 0 0 -85z m79 47 c13 -25 -5 -52 -34
-52 -22 0 -25 5 -25 35 0 31 3 35 25 35 13 0 29 -8 34 -18z"/>
<path d="M4740 8575 l0 -85 31 0 c46 0 69 16 69 50 0 31 -22 50 -59 50 -16 0
-21 6 -21 26 0 22 4 25 28 22 22 -2 27 -8 25 -26 -2 -13 1 -21 7 -17 16 10 12
52 -6 59 -9 3 -29 6 -45 6 l-29 0 0 -85z m84 -20 c10 -26 -5 -45 -35 -45 -26
0 -29 4 -29 30 0 26 3 30 29 30 16 0 31 -6 35 -15z"/>
<path d="M4880 8575 c0 -50 4 -85 10 -85 6 0 10 35 10 85 0 50 -4 85 -10 85
-6 0 -10 -35 -10 -85z"/>
<path d="M5245 8640 c-23 -25 -14 -45 30 -71 20 -12 35 -29 35 -40 0 -16 -7
-19 -41 -19 -24 0 -38 -4 -34 -10 10 -16 62 -12 80 6 23 23 15 45 -25 72 -45
30 -46 56 -2 60 18 2 30 8 27 13 -10 16 -51 10 -70 -11z"/>
<path d="M5386 8639 c-21 -16 -26 -29 -26 -63 0 -51 21 -75 77 -87 21 -4 49
-11 63 -14 l25 -7 -23 17 c-20 15 -21 18 -7 38 23 33 19 84 -10 112 -30 30
-64 32 -99 4z m94 -14 c6 -8 12 -30 12 -50 0 -46 -17 -65 -57 -65 -40 0 -59
21 -59 65 0 18 6 40 13 49 17 20 75 21 91 1z"/>
<path d="M5552 8578 l-2 -88 40 0 c22 0 40 5 40 10 0 6 -16 10 -35 10 l-34 0
-4 78 -3 77 -2 -87z"/>
<path d="M5980 8575 l0 -85 40 0 c22 0 40 5 40 10 0 6 -16 10 -35 10 -32 0
-35 2 -35 30 0 28 3 30 35 30 19 0 35 5 35 10 0 6 -16 10 -35 10 -31 0 -35 3
-35 25 0 22 4 25 35 25 19 0 35 5 35 10 0 6 -18 10 -40 10 l-40 0 0 -85z"/>
<path d="M6850 8575 c0 -50 4 -85 10 -85 6 0 10 15 11 33 0 17 2 56 2 85 2 36
-2 52 -10 52 -10 0 -13 -24 -13 -85z"/>
<path d="M6245 8633 c-4 -13 -12 -23 -17 -23 -7 0 -7 -5 0 -13 6 -7 12 -33 14
-57 2 -36 7 -46 23 -48 16 -3 18 -1 8 9 -7 7 -13 32 -13 55 0 32 4 44 18 47
15 4 15 5 0 6 -9 0 -19 11 -21 24 l-4 22 -8 -22z"/>
<path d="M2901 8628 c0 -10 -6 -18 -13 -18 -9 0 -9 -3 0 -12 7 -7 12 -31 12
-55 0 -30 5 -45 15 -50 23 -8 33 7 12 18 -23 13 -23 74 1 88 15 9 15 10 0 11
-9 0 -19 8 -21 18 -4 16 -5 16 -6 0z"/>
<path d="M2777 8592 c-21 -23 -22 -66 -1 -86 17 -18 59 -21 69 -7 3 5 -9 9
-26 9 -30 -1 -53 17 -43 34 3 4 23 8 45 8 43 0 51 16 23 44 -21 21 -47 20 -67
-2z m63 -18 c0 -10 -12 -14 -37 -14 l-38 1 23 19 c24 20 52 17 52 -6z"/>
<path d="M3440 8605 c0 -6 7 -21 16 -33 14 -20 14 -24 -6 -52 -12 -17 -17 -30
-12 -30 5 0 17 10 26 23 l16 22 16 -22 c9 -13 21 -23 26 -23 5 0 0 14 -12 30
l-21 30 21 30 c12 17 16 30 10 30 -6 0 -16 -12 -22 -26 l-12 -26 -23 28 c-13
16 -23 24 -23 19z"/>
<path d="M3572 8594 c-27 -19 -29 -64 -4 -87 22 -20 48 -22 58 -5 5 8 2 9 -10
5 -17 -7 -56 23 -56 43 0 18 39 50 55 44 8 -4 15 -1 15 5 0 16 -32 13 -58 -5z"/>
<path d="M3677 8592 c-21 -23 -22 -66 -1 -86 17 -18 59 -21 69 -7 3 5 -9 9
-26 9 -30 -1 -53 17 -43 34 3 4 23 8 45 8 43 0 51 16 23 44 -21 21 -47 20 -67
-2z m63 -18 c0 -10 -12 -14 -37 -14 l-38 1 23 19 c24 20 52 17 52 -6z"/>
<path d="M4166 8594 c-9 -8 -16 -28 -16 -44 0 -54 59 -80 93 -42 50 55 -26
138 -77 86z m74 -24 c22 -40 -22 -80 -58 -54 -28 19 -28 49 -1 68 24 17 45 12
59 -14z"/>
<path d="M4284 8594 c4 -9 11 -36 17 -60 6 -24 15 -44 19 -44 5 0 14 17 21 38
18 58 21 59 36 9 7 -26 17 -47 21 -47 7 0 42 95 42 114 0 21 -19 -9 -24 -39
-10 -51 -22 -51 -35 0 -6 25 -15 45 -19 45 -4 0 -14 -21 -21 -47 l-13 -48 -14
30 c-7 17 -13 38 -14 48 0 9 -5 17 -11 17 -6 0 -8 -7 -5 -16z"/>
<path d="M4477 8592 c-21 -23 -22 -66 -1 -86 17 -18 59 -21 69 -7 3 5 -9 9
-26 9 -30 -1 -53 17 -43 34 3 4 23 8 45 8 43 0 51 16 23 44 -21 21 -47 20 -67
-2z m63 -18 c0 -10 -12 -14 -37 -14 l-38 1 23 19 c24 20 52 17 52 -6z"/>
<path d="M4590 8550 c0 -33 4 -60 10 -60 6 0 10 21 10 46 0 37 4 47 20 51 11
3 20 9 20 14 0 13 -14 11 -28 -3 -9 -9 -12 -9 -12 0 0 7 -4 12 -10 12 -6 0
-10 -27 -10 -60z"/>
<path d="M6102 8550 c1 -36 3 -51 5 -35 7 55 13 73 26 78 25 9 41 -11 48 -60
l6 -48 2 51 c1 62 -16 83 -54 66 -18 -8 -25 -8 -29 1 -2 7 -4 -17 -4 -53z"/>
<path d="M6320 8590 c-24 -24 -25 -48 -4 -78 16 -24 49 -29 74 -11 12 8 10 10
-9 5 -29 -6 -61 9 -61 29 0 11 12 15 40 15 32 0 40 4 40 18 0 42 -47 55 -80
22z m70 -20 c0 -6 -16 -10 -35 -10 -38 0 -46 13 -18 29 19 10 53 -2 53 -19z"/>
<path d="M6441 8550 c1 -57 2 -60 8 -25 8 48 17 65 37 65 8 0 14 5 14 10 0 14
-13 13 -28 -2 -10 -10 -15 -10 -22 2 -7 10 -9 -6 -9 -50z"/>
<path d="M2520 8315 c0 -33 -2 -34 -28 -29 -37 8 -62 -17 -62 -61 0 -42 29
-63 66 -47 17 8 24 8 28 -1 2 -7 5 30 5 81 1 50 -1 92 -4 92 -3 0 -5 -16 -5
-35z m-5 -66 c11 -34 -4 -59 -35 -59 -31 0 -46 25 -35 59 11 34 59 34 70 0z"/>
<path d="M4160 8315 c0 -33 -1 -34 -29 -29 -22 5 -32 1 -45 -17 -21 -31 -20
-62 2 -82 22 -20 43 -22 60 -5 9 9 12 9 12 0 0 -7 5 -12 10 -12 6 0 10 37 10
90 0 53 -4 90 -10 90 -5 0 -10 -16 -10 -35z m0 -85 c0 -18 -7 -33 -18 -39 -26
-14 -52 5 -52 39 0 34 26 53 52 39 11 -6 18 -21 18 -39z"/>
<path d="M6100 8315 c0 -33 -2 -34 -28 -29 -37 8 -62 -17 -62 -61 0 -42 29
-63 66 -47 17 8 24 8 28 -1 2 -7 5 30 5 81 1 50 -1 92 -4 92 -3 0 -5 -16 -5
-35z m-5 -66 c11 -34 -4 -59 -35 -59 -31 0 -46 25 -35 59 11 34 59 34 70 0z"/>
<path d="M5125 8324 c-23 -23 -15 -45 25 -72 47 -32 46 -56 -3 -60 -20 -2 -35
-7 -32 -13 11 -16 61 -10 79 10 22 24 9 54 -34 76 -18 9 -30 23 -30 35 0 16 7
20 36 20 21 0 33 4 29 10 -10 16 -52 12 -70 -6z"/>
<path d="M2711 8313 c0 -13 -6 -23 -12 -23 -8 0 -8 -4 -1 -13 6 -7 12 -33 14
-57 2 -33 8 -46 21 -48 9 -2 17 1 17 7 0 6 -7 11 -15 11 -23 0 -20 76 3 89 15
9 16 10 0 11 -9 0 -19 10 -21 23 l-4 22 -2 -22z"/>
<path d="M4355 8313 c-4 -13 -12 -23 -17 -23 -7 0 -7 -5 0 -13 6 -7 12 -33 14
-57 2 -36 7 -46 23 -48 16 -3 18 -1 8 9 -7 7 -13 32 -13 55 0 32 4 44 18 47
15 4 15 5 0 6 -9 0 -19 11 -21 24 l-4 22 -8 -22z"/>
<path d="M4785 8313 c-4 -13 -12 -23 -17 -23 -7 0 -7 -5 0 -13 6 -7 12 -33 14
-57 2 -36 7 -46 23 -48 16 -3 18 -1 8 9 -7 7 -13 32 -13 55 0 32 4 44 18 47
15 4 15 5 0 6 -9 0 -19 11 -21 24 l-4 22 -8 -22z"/>
<path d="M6291 8313 c0 -13 -6 -23 -12 -23 -8 0 -8 -4 -1 -13 6 -7 12 -33 14
-57 2 -33 8 -46 21 -48 9 -2 17 1 17 7 0 6 -7 11 -15 11 -23 0 -20 76 3 89 15
9 16 10 0 11 -9 0 -19 10 -21 23 l-4 22 -2 -22z"/>
<path d="M2584 8279 c-3 -6 1 -10 12 -9 53 6 61 -15 12 -28 -26 -6 -34 -14
-36 -35 -2 -15 0 -28 5 -28 4 -1 25 -3 46 -4 l37 -2 0 46 c0 26 -5 52 -12 59
-15 15 -55 16 -64 1z m52 -75 c-7 -19 -51 -15 -51 6 0 15 48 32 53 18 2 -5 1
-16 -2 -24z"/>
<path d="M2790 8279 c-12 -9 -11 -10 7 -6 12 3 30 -1 40 -8 16 -12 14 -14 -19
-20 -43 -8 -59 -38 -34 -63 12 -12 20 -13 40 -4 19 8 26 8 30 -1 2 -7 5 11 5
39 1 67 -27 93 -69 63z m60 -53 c0 -20 -16 -36 -36 -36 -17 0 -24 6 -24 20 0
16 7 20 30 20 17 0 30 -2 30 -4z"/>
<path d="M4230 8279 c-12 -8 -10 -10 9 -5 14 3 31 0 39 -7 12 -9 8 -13 -19
-22 -42 -14 -58 -38 -40 -59 16 -19 47 -21 57 -4 5 7 2 9 -8 6 -21 -9 -42 7
-35 26 4 9 18 16 32 16 21 0 25 -4 21 -17 -3 -10 -1 -25 4 -33 7 -11 10 2 10
41 0 43 -4 58 -16 63 -22 9 -37 7 -54 -5z"/>
<path d="M4434 8279 c-3 -6 1 -10 12 -9 53 6 61 -12 12 -26 -26 -8 -34 -16
-36 -37 -4 -32 21 -46 49 -28 12 7 19 7 19 1 0 -5 5 -10 10 -10 13 0 13 76 0
101 -11 20 -54 26 -66 8z m41 -85 c-21 -16 -47 -7 -43 14 4 22 52 33 57 13 2
-8 -5 -20 -14 -27z"/>
<path d="M4552 8278 c-20 -20 -14 -37 18 -53 46 -24 39 -41 -15 -35 -15 1 -17
-1 -8 -10 7 -8 22 -10 37 -6 34 8 35 42 1 58 -40 18 -31 44 13 39 6 -1 12 3
12 9 0 14 -43 13 -58 -2z"/>
<path d="M4660 8270 c-25 -25 -26 -62 -2 -83 21 -20 58 -22 68 -5 5 7 1 9 -13
6 -25 -7 -53 8 -53 27 0 11 12 15 40 15 33 0 40 3 40 20 0 18 -26 40 -49 40
-6 0 -20 -9 -31 -20z m64 -16 c4 -10 -3 -14 -29 -14 -37 0 -46 13 -18 28 20
12 39 6 47 -14z"/>
<path d="M4862 8278 c-20 -20 -14 -37 18 -53 17 -9 30 -19 30 -24 0 -13 -27
-21 -45 -15 -8 4 -15 1 -15 -5 0 -12 29 -15 54 -5 26 10 18 42 -15 59 -24 13
-28 19 -19 30 6 7 20 10 32 7 14 -3 19 -1 14 6 -9 15 -39 15 -54 0z"/>
<path d="M5250 8270 c-24 -24 -25 -48 -4 -78 16 -24 49 -29 74 -11 12 8 10 10
-9 5 -29 -6 -61 9 -61 29 0 11 12 15 40 15 32 0 40 4 40 18 0 42 -47 55 -80
22z m70 -20 c0 -6 -16 -10 -35 -10 -38 0 -46 13 -18 29 19 10 53 -2 53 -19z"/>
<path d="M5372 8230 c1 -60 1 -62 7 -20 5 34 12 47 29 55 12 5 22 13 22 17 0
12 -28 9 -36 -3 -4 -8 -9 -7 -15 2 -5 9 -8 -11 -7 -51z"/>
<path d="M5462 8238 c25 -66 28 -72 38 -61 15 15 50 113 41 113 -5 0 -17 -23
-27 -52 l-17 -52 -19 52 c-11 29 -23 52 -28 52 -4 0 1 -24 12 -52z"/>
<path d="M5586 8274 c-9 -8 -16 -31 -16 -50 0 -42 35 -64 72 -47 21 10 20 11
-10 10 -32 0 -56 18 -46 35 3 4 23 8 45 8 43 0 46 5 23 38 -18 26 -46 28 -68
6z m62 -21 c2 -9 -8 -13 -32 -13 -28 0 -34 3 -29 16 7 18 54 16 61 -3z"/>
<path d="M5701 8230 c1 -57 2 -60 8 -25 8 48 17 65 37 65 8 0 14 5 14 10 0 14
-13 13 -28 -2 -10 -10 -15 -10 -22 2 -7 10 -9 -6 -9 -50z"/>
<path d="M6164 8279 c-3 -6 1 -10 12 -9 53 6 61 -15 12 -28 -26 -6 -34 -14
-36 -35 -2 -15 0 -28 5 -28 4 -1 25 -3 46 -4 l37 -2 0 46 c0 26 -5 52 -12 59
-15 15 -55 16 -64 1z m52 -75 c-7 -19 -51 -15 -51 6 0 15 48 32 53 18 2 -5 1
-16 -2 -24z"/>
<path d="M6370 8279 c-12 -9 -11 -10 7 -6 12 3 30 -1 40 -8 16 -12 14 -14 -19
-20 -43 -8 -59 -38 -34 -63 12 -12 20 -13 40 -4 19 8 26 8 30 -1 2 -7 5 11 5
39 1 67 -27 93 -69 63z m60 -53 c0 -20 -16 -36 -36 -36 -17 0 -24 6 -24 20 0
16 7 20 30 20 17 0 30 -2 30 -4z"/>
<path d="M6696 8277 c-22 -16 -12 -45 20 -53 13 -3 24 -12 24 -20 0 -14 -11
-18 -45 -14 -15 1 -17 -1 -9 -10 16 -16 55 -9 68 13 11 19 9 21 -41 54 -15 10
-16 14 -4 22 8 5 20 7 28 4 7 -3 13 0 13 6 0 15 -32 14 -54 -2z"/>
<path d="M6800 8270 c-11 -11 -20 -29 -20 -40 0 -23 33 -60 54 -60 22 0 46 11
46 21 0 5 -10 5 -23 0 -14 -5 -30 -5 -40 0 -24 14 -22 65 2 79 25 13 27 13 45
-6 14 -13 16 -13 16 -1 0 31 -52 35 -80 7z"/>
<path d="M3012 8248 c-21 -21 -22 -21 -42 -3 -31 28 -38 8 -7 -23 l27 -27 31
31 c17 18 27 34 22 37 -5 3 -19 -4 -31 -15z"/>
<path d="M813 7805 c0 -44 2 -61 4 -37 2 23 2 59 0 80 -2 20 -4 1 -4 -43z"/>
<path d="M1021 7809 l-1 -76 36 2 c49 1 67 33 44 76 -12 21 -45 25 -57 7 -5
-8 -10 1 -14 27 -5 31 -6 23 -8 -36z m67 -1 c17 -17 15 -43 -4 -59 -31 -26
-70 25 -44 56 15 18 32 19 48 3z"/>
<path d="M1490 7851 c0 -24 -3 -28 -20 -24 -28 7 -50 -14 -50 -47 0 -34 17
-49 52 -47 28 2 28 2 28 75 0 39 -2 72 -5 72 -3 0 -5 -13 -5 -29z m-2 -67 c3
-33 -15 -49 -43 -38 -18 7 -20 45 -3 62 21 21 43 9 46 -24z"/>
<path d="M700 7850 c-45 -45 -13 -121 50 -119 25 1 25 1 -3 9 -41 13 -57 29
-57 60 0 31 16 47 57 60 l28 8 -27 1 c-16 1 -37 -8 -48 -19z"/>
<path d="M4870 7800 l0 -70 30 0 c38 0 80 39 80 75 0 36 -33 65 -75 65 l-35 0
0 -70z m80 40 c37 -37 19 -85 -37 -96 l-33 -6 0 61 c0 58 1 61 25 61 14 0 34
-9 45 -20z"/>
<path d="M5121 7848 c-1 -10 -7 -18 -13 -18 -10 0 -10 -2 -1 -8 6 -4 13 -25
15 -46 2 -22 9 -41 16 -42 7 -1 8 0 2 3 -15 7 -13 83 3 83 8 0 9 3 1 8 -6 4
-14 14 -17 22 -4 12 -6 11 -6 -2z"/>
<path d="M863 7780 c0 -30 2 -43 4 -27 2 15 2 39 0 55 -2 15 -4 2 -4 -28z"/>
<path d="M902 7752 c0 -42 3 -62 5 -44 4 28 7 31 29 26 31 -8 54 11 54 45 0
30 -16 51 -39 51 -11 0 -9 -5 7 -16 24 -17 29 -43 10 -62 -29 -29 -68 10 -49
47 8 14 7 20 -4 25 -13 4 -15 -7 -13 -72z"/>
<path d="M1146 7814 c-31 -30 -9 -84 34 -84 11 0 27 11 36 25 15 23 15 27 0
50 -19 29 -47 32 -70 9z m48 0 c35 -13 14 -74 -24 -74 -18 0 -31 39 -20 60 11
21 19 24 44 14z"/>
<path d="M1266 7822 c-3 -5 4 -8 16 -8 34 1 32 -22 -2 -29 -25 -5 -31 -11 -28
-28 2 -17 10 -22 36 -22 31 -1 32 1 32 41 0 29 -5 44 -16 48 -21 8 -32 8 -38
-2z m44 -56 c0 -18 -31 -29 -44 -16 -8 8 -7 14 4 20 22 14 40 12 40 -4z"/>
<path d="M1360 7780 c0 -29 2 -51 4 -49 8 8 10 88 3 95 -4 4 -7 -17 -7 -46z"/>
<path d="M5014 7819 c-4 -7 0 -9 14 -5 24 8 41 -12 21 -25 -10 -6 -11 -9 -1
-9 17 0 15 -30 -4 -37 -23 -9 -43 15 -24 28 13 9 13 10 0 6 -8 -2 -15 -12 -15
-23 0 -15 8 -19 38 -21 35 -1 37 1 37 29 0 16 -5 38 -10 49 -12 21 -45 26 -56
8z"/>
<path d="M5184 7819 c-4 -7 0 -9 14 -5 24 8 41 -12 21 -25 -10 -6 -11 -9 -1
-9 17 0 15 -30 -4 -37 -23 -9 -43 15 -24 28 13 9 13 10 0 6 -8 -2 -15 -12 -15
-23 0 -15 8 -19 38 -21 35 -1 37 1 37 29 0 16 -5 38 -10 49 -12 21 -45 26 -56
8z"/>
<path d="M280 7265 l0 -135 135 0 c83 0 135 4 135 10 0 6 -48 10 -125 10
l-125 0 0 125 c0 77 -4 125 -10 125 -6 0 -10 -52 -10 -135z"/>
<path d="M480 7280 l0 -110 30 0 30 0 0 110 0 110 -30 0 -30 0 0 -110z m40 0
c0 -53 -4 -90 -10 -90 -6 0 -10 37 -10 90 0 53 4 90 10 90 6 0 10 -37 10 -90z"/>
<path d="M320 7260 l0 -90 30 0 30 0 0 90 0 90 -30 0 -30 0 0 -90z m40 0 c0
-40 -4 -70 -10 -70 -6 0 -10 30 -10 70 0 40 4 70 10 70 6 0 10 -30 10 -70z"/>
<path d="M400 7240 l0 -70 30 0 30 0 0 70 0 70 -30 0 -30 0 0 -70z m40 0 c0
-27 -4 -50 -10 -50 -5 0 -10 23 -10 50 0 28 5 50 10 50 6 0 10 -22 10 -50z"/>
<path d="M440 6630 c0 -18 -7 -20 -60 -20 l-60 0 0 -30 c0 -28 -2 -30 -40 -30
l-40 0 0 -80 0 -80 40 0 c38 0 40 -2 40 -30 l0 -30 60 0 c53 0 60 -2 60 -20 0
-18 7 -20 80 -20 l80 0 0 80 0 80 -80 0 -80 0 0 -50 0 -50 -50 0 c-43 0 -50 3
-50 20 0 16 7 20 30 20 l30 0 0 80 0 80 -30 0 c-23 0 -30 4 -30 20 0 17 7 20
50 20 l50 0 0 -50 0 -50 80 0 80 0 0 80 0 80 -80 0 c-73 0 -80 -2 -80 -20z
m140 -20 c0 -18 -7 -20 -60 -20 -53 0 -60 2 -60 20 0 18 7 20 60 20 53 0 60
-2 60 -20z m0 -70 l0 -30 -60 0 -60 0 0 30 0 30 60 0 60 0 0 -30z m-200 -30
c0 -18 -7 -20 -60 -20 -53 0 -60 2 -60 20 0 18 7 20 60 20 53 0 60 -2 60 -20z
m0 -70 l0 -30 -60 0 -60 0 0 30 0 30 60 0 60 0 0 -30z m200 -30 c0 -18 -7 -20
-60 -20 -53 0 -60 2 -60 20 0 18 7 20 60 20 53 0 60 -2 60 -20z m0 -70 l0 -30
-60 0 -60 0 0 30 0 30 60 0 60 0 0 -30z"/>
<path d="M1860 3670 l0 -2960 1760 0 1760 0 0 2960 0 2960 -1760 0 -1760 0 0
-2960z m3500 0 l0 -2940 -1740 0 -1740 0 0 2940 0 2940 1740 0 1740 0 0 -2940z"/>
<path d="M4930 6320 c0 -11 5 -20 10 -20 6 0 10 9 10 20 0 11 -4 20 -10 20 -5
0 -10 -9 -10 -20z"/>
<path d="M5050 6320 c0 -11 5 -20 10 -20 6 0 10 9 10 20 0 11 -4 20 -10 20 -5
0 -10 -9 -10 -20z"/>
<path d="M5170 6320 c0 -11 5 -20 10 -20 6 0 10 9 10 20 0 11 -4 20 -10 20 -5
0 -10 -9 -10 -20z"/>
<path d="M2460 6274 c0 -81 20 -114 73 -114 47 0 67 31 67 105 0 58 -2 65 -20
65 -17 0 -19 -8 -22 -67 -3 -65 -4 -68 -28 -68 -24 0 -25 3 -28 68 -3 59 -5
67 -22 67 -18 0 -20 -7 -20 -56z"/>
<path d="M2970 6246 l0 -86 46 0 c37 0 51 5 76 30 26 27 30 36 25 67 -9 51
-27 66 -91 71 l-56 4 0 -86z m94 38 c33 -32 10 -94 -35 -94 -16 0 -19 7 -19
55 0 48 3 55 19 55 11 0 27 -7 35 -16z"/>
<path d="M3298 6312 c-10 -2 -18 -10 -18 -18 0 -8 -4 -14 -10 -14 -5 0 -10 -7
-10 -15 0 -8 5 -15 10 -15 6 0 10 -12 10 -26 0 -14 5 -34 10 -45 13 -23 60
-26 60 -4 0 8 -7 15 -15 15 -10 0 -15 10 -15 30 0 20 5 30 15 30 8 0 15 7 15
15 0 8 -6 15 -14 15 -8 0 -16 8 -18 18 -2 11 -10 16 -20 14z"/>
<path d="M2642 6268 c-20 -20 -14 -44 16 -58 l27 -14 -28 -4 c-32 -4 -32 -25
1 -30 27 -4 62 15 62 33 0 9 -15 24 -32 35 l-33 20 28 0 c17 0 27 5 27 15 0
18 -50 21 -68 3z"/>
<path d="M2763 6272 c-19 -12 -31 -55 -22 -79 9 -25 47 -38 78 -28 31 9 25 25
-8 25 -17 0 -33 5 -36 10 -4 6 10 10 34 10 45 0 51 11 25 48 -15 22 -48 29
-71 14z m52 -32 c4 -6 -5 -10 -20 -10 -15 0 -24 4 -20 10 3 6 12 10 20 10 8 0
17 -4 20 -10z"/>
<path d="M2870 6219 c0 -52 2 -59 20 -59 17 0 20 7 20 41 0 32 4 42 20 46 36
10 23 31 -20 31 l-40 1 0 -60z"/>
<path d="M3157 6273 c-17 -17 -5 -29 26 -26 l32 3 -35 -13 c-26 -10 -36 -20
-38 -40 -4 -32 21 -46 49 -28 12 7 19 7 19 1 0 -5 7 -10 15 -10 19 0 21 90 3
108 -13 13 -60 16 -71 5z m53 -63 c0 -12 -28 -25 -36 -17 -9 9 6 27 22 27 8 0
14 -5 14 -10z"/>
<path d="M3383 6273 c-27 -10 -13 -30 20 -26 l32 3 -35 -13 c-26 -10 -36 -20
-38 -39 -4 -31 30 -47 53 -28 11 9 15 9 15 1 0 -6 7 -11 15 -11 19 0 21 90 3
108 -12 12 -43 15 -65 5z m47 -63 c0 -12 -28 -25 -36 -17 -9 9 6 27 22 27 8 0
14 -5 14 -10z"/>
<path d="M2507 5763 c-3 -10 -17 -48 -31 -85 -14 -38 -21 -68 -16 -68 5 0 12
11 16 25 5 21 12 25 45 25 34 0 41 -4 50 -27 6 -16 13 -23 15 -18 6 14 -51
158 -63 162 -6 2 -13 -4 -16 -14z m39 -80 c-2 -2 -15 -3 -28 -1 -24 3 -24 4
-10 38 l15 35 14 -34 c8 -18 12 -35 9 -38z"/>
<path d="M2655 5768 c-52 -28 -62 -92 -20 -133 25 -25 42 -29 83 -19 18 5 22
13 22 45 0 35 -3 39 -25 39 -14 0 -25 -4 -25 -10 0 -5 9 -10 21 -10 15 0 20
-5 17 -22 -2 -18 -10 -24 -39 -26 -44 -4 -63 16 -63 65 0 44 24 63 78 63 30 0
37 3 26 10 -20 13 -50 12 -75 -2z"/>
<path d="M2780 5695 l0 -85 45 0 c25 0 45 5 45 10 0 6 -16 10 -35 10 -32 0
-35 2 -35 30 0 27 3 30 30 30 17 0 30 5 30 10 0 6 -13 10 -30 10 -25 0 -30 4
-30 25 0 22 4 25 35 25 19 0 35 5 35 10 0 6 -20 10 -45 10 l-45 0 0 -85z"/>
<path d="M2470 5235 l0 -85 34 0 c32 0 66 27 66 52 0 17 -42 48 -65 48 -20 0
-25 5 -25 25 0 21 5 25 31 25 28 0 31 -3 27 -25 -6 -30 8 -34 17 -5 9 30 -12
50 -51 50 l-34 0 0 -85z m75 -35 c0 -21 -5 -26 -32 -28 -31 -3 -33 -1 -33 28
0 29 2 31 33 28 27 -2 32 -7 32 -28z"/>
<path d="M2614 5235 c0 -49 1 -71 3 -48 2 23 2 64 0 90 -2 26 -3 8 -3 -42z"/>
<path d="M2670 5235 c0 -50 4 -85 10 -85 6 0 10 16 10 35 0 28 4 35 19 35 11
0 28 -15 41 -35 12 -19 26 -35 31 -35 5 0 -2 17 -15 37 -23 33 -24 39 -11 53
36 39 8 80 -54 80 l-31 0 0 -85z m78 38 c-2 -22 -9 -29 -30 -31 -25 -3 -28 0
-28 27 0 28 3 31 31 31 27 0 30 -3 27 -27z"/>
<path d="M2790 5310 c0 -5 11 -10 25 -10 23 0 24 -3 28 -77 l3 -78 2 78 c2 75
3 77 27 77 14 0 25 5 25 10 0 6 -25 10 -55 10 -30 0 -55 -4 -55 -10z"/>
<path d="M2933 5235 c0 -49 2 -71 4 -47 l4 42 49 0 49 0 4 -42 c2 -24 4 -2 4
47 0 50 -2 73 -4 53 l-4 -38 -49 0 -49 0 -4 38 c-2 20 -4 -3 -4 -53z"/>
<path d="M2470 4775 l0 -85 34 0 c32 0 66 27 66 52 0 17 -42 48 -65 48 -20 0
-25 5 -25 25 0 21 5 25 31 25 28 0 31 -3 27 -25 -6 -30 8 -34 17 -5 9 30 -12
50 -51 50 l-34 0 0 -85z m75 -35 c0 -21 -5 -26 -32 -28 -31 -3 -33 -1 -33 28
0 29 2 31 33 28 27 -2 32 -7 32 -28z"/>
<path d="M2612 4778 l-2 -88 40 0 c22 0 40 5 40 10 0 6 -16 10 -35 10 l-34 0
-4 78 -3 77 -2 -87z"/>
<path d="M2722 4793 c-2 -78 10 -103 52 -103 45 0 60 23 64 99 3 48 1 71 -7
71 -7 0 -11 -22 -11 -59 0 -77 -6 -91 -40 -91 -39 0 -48 16 -53 90 l-3 65 -2
-72z"/>
<path d="M2880 4775 l0 -85 45 0 c25 0 45 5 45 10 0 6 -16 10 -35 10 -32 0
-35 2 -35 30 0 27 3 30 30 30 17 0 30 5 30 10 0 6 -13 10 -30 10 -25 0 -30 4
-30 25 0 21 5 25 30 25 17 0 30 5 30 10 0 6 -18 10 -40 10 l-40 0 0 -85z"/>
<path d="M3000 4776 l0 -86 34 0 c55 0 87 50 51 80 -11 9 -12 16 -2 31 18 28
-2 53 -47 57 l-36 3 0 -85z m74 55 c11 -18 -6 -41 -30 -41 -19 0 -24 5 -24 25
0 20 5 25 24 25 14 0 27 -4 30 -9z m10 -77 c9 -22 -11 -44 -40 -44 -20 0 -24
5 -24 30 0 26 3 30 29 30 17 0 31 -6 35 -16z"/>
<path d="M3155 4835 c-50 -49 -17 -145 50 -145 38 0 75 42 75 85 0 43 -37 85
-75 85 -14 0 -37 -11 -50 -25z m99 -17 c34 -48 7 -108 -48 -108 -41 0 -60 21
-60 65 0 44 19 65 60 65 23 0 38 -7 48 -22z"/>
<path d="M3352 4853 c-23 -9 -44 -64 -37 -99 11 -60 70 -82 119 -43 21 16 26
29 26 62 0 48 -6 59 -37 76 -22 11 -49 13 -71 4z m80 -30 c22 -20 23 -70 1
-95 -20 -22 -66 -24 -87 -2 -9 8 -16 31 -16 49 0 18 7 41 16 49 20 21 63 20
86 -1z"/>
<path d="M3500 4775 c0 -50 4 -85 10 -85 6 0 10 19 10 43 l0 42 36 -42 c20
-24 40 -43 46 -43 6 0 -6 21 -27 46 l-38 46 39 39 c21 21 33 39 27 39 -6 0
-27 -18 -47 -40 l-36 -40 0 40 c0 22 -4 40 -10 40 -6 0 -10 -35 -10 -85z"/>
<path d="M2505 4388 c-32 -17 -45 -39 -45 -75 0 -59 65 -102 110 -73 11 7 4
10 -26 10 -50 0 -68 18 -68 67 0 42 23 63 72 63 19 0 31 4 27 10 -8 13 -45 12
-70 -2z"/>
<path d="M2657 4383 c-3 -10 -17 -48 -31 -85 -14 -38 -21 -68 -16 -68 5 0 12
11 16 25 5 21 12 25 45 25 34 0 41 -4 50 -27 6 -16 13 -23 15 -18 6 14 -51
158 -63 162 -6 2 -13 -4 -16 -14z m39 -80 c-2 -2 -15 -3 -28 -1 -24 3 -24 4
-10 38 l15 35 14 -34 c8 -18 12 -35 9 -38z"/>
<path d="M2770 4315 c0 -50 4 -85 10 -85 6 0 10 16 10 35 0 28 4 35 19 35 11
0 28 -15 41 -35 12 -19 26 -35 31 -35 5 0 -2 18 -15 39 -22 34 -23 41 -11 51
21 18 18 57 -4 70 -11 5 -33 10 -50 10 l-31 0 0 -85z m84 49 c9 -22 -11 -44
-40 -44 -20 0 -24 5 -24 30 0 26 3 30 29 30 17 0 31 -6 35 -16z"/>
<path d="M3037 4333 c-14 -38 -28 -76 -32 -85 -4 -10 -3 -18 3 -18 5 0 13 11
16 25 5 21 12 25 46 25 34 0 41 -4 46 -25 5 -21 24 -36 24 -20 0 16 -63 165
-70 165 -4 0 -19 -30 -33 -67z m46 20 c2 -10 8 -26 12 -35 6 -15 2 -18 -23
-18 -30 0 -30 0 -19 35 11 38 22 45 30 18z"/>
<path d="M3203 4390 c-51 -21 -58 -108 -11 -143 20 -15 35 -18 62 -13 34 7 36
9 36 46 0 36 -3 40 -25 40 -14 0 -25 -4 -25 -10 0 -5 7 -10 15 -10 9 0 15 -9
15 -25 0 -22 -4 -25 -34 -25 -25 0 -39 7 -50 22 -36 51 -7 108 55 108 24 0 38
4 34 10 -7 12 -42 12 -72 0z"/>
<path d="M3330 4315 l0 -85 45 0 c25 0 45 5 45 10 0 6 -16 10 -35 10 -32 0
-35 2 -35 30 0 27 3 30 30 30 17 0 30 5 30 10 0 6 -13 10 -30 10 -25 0 -30 4
-30 25 0 21 5 25 30 25 17 0 30 5 30 10 0 6 -18 10 -40 10 l-40 0 0 -85z"/>
<path d="M2923 4203 c15 -2 37 -2 50 0 12 2 0 4 -28 4 -27 0 -38 -2 -22 -4z"/>
<path d="M2505 3928 c-32 -17 -45 -39 -45 -75 0 -59 65 -102 110 -73 11 7 4
10 -26 10 -50 0 -68 18 -68 67 0 42 23 63 72 63 19 0 31 4 27 10 -8 13 -45 12
-70 -2z"/>
<path d="M2657 3923 c-3 -10 -17 -48 -31 -85 -14 -38 -21 -68 -16 -68 5 0 12
11 16 25 5 21 12 25 45 25 34 0 41 -4 50 -27 6 -16 13 -23 15 -18 6 14 -51
158 -63 162 -6 2 -13 -4 -16 -14z m39 -80 c-2 -2 -15 -3 -28 -1 -24 3 -24 4
-10 38 l15 35 14 -34 c8 -18 12 -35 9 -38z"/>
<path d="M2770 3855 c0 -50 4 -85 10 -85 6 0 10 16 10 35 0 28 4 35 19 35 11
0 28 -15 41 -35 12 -19 26 -35 31 -35 5 0 -2 18 -15 39 -22 34 -23 41 -11 51
21 18 18 57 -4 70 -11 5 -33 10 -50 10 l-31 0 0 -85z m84 49 c9 -22 -11 -44
-40 -44 -20 0 -24 5 -24 30 0 26 3 30 29 30 17 0 31 -6 35 -16z"/>
<path d="M3000 3930 c0 -5 11 -10 25 -10 23 0 24 -3 28 -77 l3 -78 2 78 c2 75
3 77 27 77 14 0 25 5 25 10 0 6 -25 10 -55 10 -30 0 -55 -4 -55 -10z"/>
<path d="M3155 3888 c14 -29 25 -68 25 -85 0 -18 5 -33 10 -33 6 0 10 17 10
38 0 21 11 56 25 81 28 48 29 51 17 51 -5 0 -17 -18 -27 -40 -10 -22 -21 -40
-25 -40 -4 0 -15 18 -25 40 -10 22 -22 40 -26 40 -4 0 3 -24 16 -52z"/>
<path d="M3282 3853 c0 -49 3 -74 5 -57 4 27 9 33 39 39 46 8 64 43 40 80 -12
19 -25 25 -51 25 l-35 0 2 -87z m73 32 c0 -27 -4 -30 -32 -33 -32 -3 -33 -2
-33 33 0 35 1 36 33 33 28 -3 32 -6 32 -33z"/>
<path d="M3410 3855 l0 -85 45 0 c25 0 45 5 45 10 0 6 -16 10 -35 10 -32 0
-35 2 -35 30 0 27 3 30 30 30 17 0 30 5 30 10 0 6 -13 10 -30 10 -25 0 -30 4
-30 25 0 22 4 25 35 25 19 0 35 5 35 10 0 6 -20 10 -45 10 l-45 0 0 -85z"/>
<path d="M2923 3743 c15 -2 37 -2 50 0 12 2 0 4 -28 4 -27 0 -38 -2 -22 -4z"/>
<path d="M2505 3468 c-32 -17 -45 -39 -45 -75 0 -59 65 -102 110 -73 11 7 4
10 -26 10 -50 0 -68 18 -68 67 0 42 23 63 72 63 19 0 31 4 27 10 -8 13 -45 12
-70 -2z"/>
<path d="M2622 3398 l-2 -88 40 0 c22 0 40 5 40 10 0 6 -16 10 -35 10 l-34 0
-4 78 -3 77 -2 -87z"/>
<path d="M2777 3463 c-3 -10 -17 -48 -31 -85 -14 -38 -21 -68 -16 -68 5 0 12
11 16 25 5 21 12 25 45 25 34 0 41 -4 50 -27 6 -16 13 -23 15 -18 6 14 -51
158 -63 162 -6 2 -13 -4 -16 -14z m39 -80 c-2 -2 -15 -3 -28 -1 -24 3 -24 4
-10 38 l15 35 14 -34 c8 -18 12 -35 9 -38z"/>
<path d="M2890 3395 c0 -50 4 -85 10 -85 6 0 10 35 10 85 0 50 -4 85 -10 85
-6 0 -10 -35 -10 -85z"/>
<path d="M2962 3393 l2 -88 5 75 6 75 29 -68 c16 -37 32 -70 36 -72 4 -2 20
28 36 68 l29 72 6 -75 5 -75 2 88 c1 48 -2 87 -7 87 -4 0 -22 -32 -39 -72
l-30 -72 -16 37 c-9 20 -23 53 -31 72 -25 58 -35 42 -33 -52z"/>
<path d="M3270 3395 c0 -50 4 -85 10 -85 6 0 10 16 10 35 0 32 2 35 30 35 17
0 30 5 30 10 0 6 -13 10 -30 10 -27 0 -30 3 -30 30 0 27 3 30 30 30 17 0 30 5
30 10 0 6 -18 10 -40 10 l-40 0 0 -85z"/>
<path d="M3392 3393 c1 -49 3 -71 5 -50 3 28 9 37 23 37 17 0 53 -36 63 -63 2
-7 8 -9 12 -5 4 4 -4 23 -19 43 -15 19 -22 35 -16 35 6 0 16 11 22 25 15 34
-12 65 -59 65 l-33 0 2 -87z m73 37 c0 -21 -5 -26 -32 -28 -31 -3 -33 -1 -33
28 0 29 2 31 33 28 27 -2 32 -7 32 -28z"/>
<path d="M3530 3395 l0 -85 45 0 c25 0 45 5 45 10 0 6 -16 10 -35 10 -32 0
-35 2 -35 30 0 27 3 30 30 30 17 0 30 5 30 10 0 6 -13 10 -30 10 -25 0 -30 4
-30 25 0 22 4 25 35 25 19 0 35 5 35 10 0 6 -20 10 -45 10 l-45 0 0 -85z"/>
<path d="M3683 3468 c-31 -15 -46 -65 -32 -105 11 -33 23 -41 79 -53 19 -4 44
-11 55 -15 19 -7 19 -7 3 10 -15 17 -16 21 -2 48 41 77 -27 152 -103 115z m87
-27 c15 -29 12 -77 -6 -95 -23 -24 -70 -20 -88 6 -34 49 -7 108 49 108 24 0
38 -6 45 -19z"/>
<path d="M3173 3283 c15 -2 39 -2 55 0 15 2 2 4 -28 4 -30 0 -43 -2 -27 -4z"/>
<path d="M2505 3008 c-32 -17 -45 -39 -45 -75 0 -59 65 -102 110 -73 11 7 4
10 -26 10 -50 0 -68 18 -68 67 0 42 23 63 72 63 19 0 31 4 27 10 -8 13 -45 12
-70 -2z"/>
<path d="M2622 2938 l-2 -88 40 0 c22 0 40 5 40 10 0 6 -16 10 -35 10 l-34 0
-4 78 -3 77 -2 -87z"/>
<path d="M2777 3003 c-3 -10 -17 -48 -31 -85 -14 -38 -21 -68 -16 -68 5 0 12
11 16 25 5 21 12 25 45 25 34 0 41 -4 50 -27 6 -16 13 -23 15 -18 6 14 -51
158 -63 162 -6 2 -13 -4 -16 -14z m39 -80 c-2 -2 -15 -3 -28 -1 -24 3 -24 4
-10 38 l15 35 14 -34 c8 -18 12 -35 9 -38z"/>
<path d="M2890 2935 c0 -50 4 -85 10 -85 6 0 10 35 10 85 0 50 -4 85 -10 85
-6 0 -10 -35 -10 -85z"/>
<path d="M2962 2933 l2 -88 5 75 6 75 29 -68 c16 -37 32 -70 36 -72 4 -2 20
28 36 68 l29 72 6 -75 5 -75 2 88 c1 48 -2 87 -7 87 -4 0 -22 -32 -39 -72
l-30 -72 -16 37 c-9 20 -23 53 -31 72 -25 58 -35 42 -33 -52z"/>
<path d="M3270 2935 c0 -50 4 -85 10 -85 6 0 10 14 10 30 0 22 5 30 18 30 29
0 62 29 62 55 0 33 -26 55 -66 55 l-34 0 0 -85z m79 47 c13 -25 -5 -52 -34
-52 -22 0 -25 5 -25 35 0 31 3 35 25 35 13 0 29 -8 34 -18z"/>
<path d="M3412 2933 c1 -49 3 -71 5 -50 5 49 34 50 65 2 13 -19 27 -35 31 -35
9 0 -9 38 -31 62 -13 16 -13 18 2 24 19 7 22 54 4 72 -7 7 -27 12 -45 12 l-33
0 2 -87z m73 37 c0 -21 -5 -26 -32 -28 -31 -3 -33 -1 -33 28 0 29 2 31 33 28
27 -2 32 -7 32 -28z"/>
<path d="M3550 2935 l0 -85 40 0 c22 0 40 5 40 10 0 6 -16 10 -35 10 -32 0
-35 2 -35 30 0 28 3 30 35 30 19 0 35 5 35 10 0 6 -16 10 -35 10 -31 0 -35 3
-35 25 0 22 4 25 35 25 19 0 35 5 35 10 0 6 -18 10 -40 10 l-40 0 0 -85z"/>
<path d="M3670 2934 l0 -87 47 6 c58 6 83 33 83 87 0 49 -35 80 -91 80 l-39 0
0 -86z m104 44 c35 -49 7 -108 -50 -108 l-34 0 0 65 0 65 34 0 c25 0 39 -7 50
-22z"/>
<path d="M3173 2823 c15 -2 39 -2 55 0 15 2 2 4 -28 4 -30 0 -43 -2 -27 -4z"/>
<path d="M2505 2548 c-32 -17 -45 -39 -45 -75 0 -59 65 -102 110 -73 11 7 4
10 -26 10 -50 0 -68 18 -68 67 0 42 23 63 72 63 19 0 31 4 27 10 -8 13 -45 12
-70 -2z"/>
<path d="M2622 2473 c1 -49 3 -71 5 -50 3 28 9 37 23 37 17 0 53 -36 63 -63 2
-7 8 -9 12 -5 4 4 -4 23 -19 43 -15 19 -22 35 -16 35 6 0 16 11 22 25 15 34
-12 65 -59 65 l-33 0 2 -87z m73 37 c0 -21 -5 -26 -32 -28 -31 -3 -33 -1 -33
28 0 29 2 31 33 28 27 -2 32 -7 32 -28z"/>
<path d="M2802 2543 c-21 -43 -54 -144 -49 -150 4 -3 11 6 16 21 9 21 17 26
46 26 28 0 38 -5 47 -25 6 -14 15 -25 19 -25 5 0 -4 30 -18 68 -14 37 -28 75
-30 85 -3 9 -9 17 -14 17 -4 0 -12 -8 -17 -17z m33 -55 c6 -25 5 -28 -19 -28
-30 0 -29 -2 -15 39 12 35 24 31 34 -11z"/>
<path d="M2925 2544 c-23 -23 -15 -45 25 -72 47 -32 46 -56 -3 -60 -20 -2 -35
-7 -32 -13 11 -16 61 -10 79 10 22 24 9 54 -34 76 -18 9 -30 23 -30 35 0 16 7
20 36 20 21 0 33 4 29 10 -10 16 -52 12 -70 -6z"/>
<path d="M3040 2475 c0 -50 4 -85 10 -85 6 0 10 18 10 40 l0 40 45 0 45 0 0
-40 c0 -22 5 -40 10 -40 6 0 10 35 10 85 0 50 -4 85 -10 85 -5 0 -10 -16 -10
-35 0 -35 0 -35 -45 -35 -45 0 -45 0 -45 35 0 19 -4 35 -10 35 -6 0 -10 -35
-10 -85z"/>
<path d="M3310 2475 c0 -50 4 -85 10 -85 6 0 10 14 10 30 0 22 5 30 18 30 32
0 62 29 62 60 0 34 -23 50 -69 50 l-31 0 0 -85z m85 45 c9 -27 -11 -50 -41
-50 -21 0 -24 5 -24 35 0 32 2 35 29 35 21 0 32 -6 36 -20z"/>
<path d="M3452 2473 c1 -49 3 -71 5 -50 3 28 9 37 23 37 17 0 53 -36 63 -63 2
-7 8 -9 12 -5 4 4 -4 23 -19 43 -15 19 -22 35 -16 35 6 0 16 11 22 25 15 34
-12 65 -59 65 l-33 0 2 -87z m73 37 c0 -21 -5 -26 -32 -28 -31 -3 -33 -1 -33
28 0 29 2 31 33 28 27 -2 32 -7 32 -28z"/>
<path d="M3590 2475 l0 -85 45 0 c25 0 45 5 45 10 0 6 -16 10 -35 10 -32 0
-35 2 -35 30 0 27 3 30 30 30 17 0 30 5 30 10 0 6 -13 10 -30 10 -25 0 -30 4
-30 25 0 21 5 25 30 25 17 0 30 5 30 10 0 6 -18 10 -40 10 l-40 0 0 -85z"/>
<path d="M3710 2474 l0 -87 45 6 c61 6 85 29 85 81 0 23 -4 46 -8 52 -13 19
-50 34 -86 34 l-36 0 0 -86z m102 49 c42 -38 10 -113 -48 -113 l-34 0 0 65 0
65 32 0 c17 0 40 -7 50 -17z"/>
<path d="M3213 2363 c15 -2 39 -2 55 0 15 2 2 4 -28 4 -30 0 -43 -2 -27 -4z"/>
<path d="M2470 2015 l0 -85 40 0 c22 0 40 5 40 10 0 6 -16 10 -35 10 -32 0
-35 2 -35 30 0 28 3 30 35 30 19 0 35 5 35 10 0 6 -16 10 -35 10 -31 0 -35 3
-35 25 0 22 4 25 35 25 19 0 35 5 35 10 0 6 -18 10 -40 10 l-40 0 0 -85z"/>
<path d="M2590 2014 l0 -87 47 6 c58 6 83 33 83 87 0 49 -35 80 -91 80 l-39 0
0 -86z m104 44 c35 -49 7 -108 -50 -108 l-34 0 0 65 0 65 34 0 c25 0 39 -7 50
-22z"/>
<path d="M2762 2034 c-2 -77 13 -104 56 -104 42 0 62 34 62 105 0 89 -18 83
-22 -7 -3 -72 -3 -73 -32 -76 -40 -5 -50 10 -57 86 l-6 67 -1 -71z"/>
<path d="M2952 2084 c-69 -48 -36 -154 48 -154 10 0 22 5 25 10 4 6 -8 10 -28
10 -41 0 -67 25 -67 67 0 38 27 63 69 63 19 0 30 4 26 10 -9 15 -48 12 -73 -6z"/>
<path d="M3109 2073 c-5 -16 -19 -52 -31 -81 -21 -54 -19 -86 3 -38 10 21 19
26 50 26 31 0 38 -4 43 -25 4 -14 11 -25 17 -25 6 0 9 4 7 8 -1 4 -16 42 -32
85 -16 42 -33 77 -38 77 -4 0 -13 -12 -19 -27z m39 -45 c11 -27 10 -28 -18
-28 -17 0 -30 2 -30 4 0 1 5 18 11 35 12 34 18 33 37 -11z"/>
<path d="M3200 2090 c0 -5 9 -10 20 -10 18 0 20 -7 20 -75 0 -43 4 -75 10 -75
6 0 10 32 10 75 0 73 1 75 25 75 14 0 25 5 25 10 0 6 -25 10 -55 10 -30 0 -55
-4 -55 -10z"/>
<path d="M3344 2015 c0 -49 1 -71 3 -48 2 23 2 64 0 90 -2 26 -3 8 -3 -42z"/>
<path d="M3415 2075 c-50 -49 -17 -145 50 -145 38 0 75 42 75 85 0 43 -37 85
-75 85 -14 0 -37 -11 -50 -25z m99 -17 c34 -48 7 -108 -48 -108 -41 0 -60 21
-60 65 0 44 19 65 60 65 23 0 38 -7 48 -22z"/>
<path d="M3580 2015 c0 -50 4 -85 10 -85 6 0 10 31 10 73 l0 72 46 -70 c25
-38 49 -71 54 -73 6 -2 9 32 8 85 l-2 88 -5 -75 -6 -75 -45 72 c-25 40 -51 73
-57 73 -10 0 -13 -24 -13 -85z"/>
<path d="M2505 1628 c-52 -28 -62 -92 -20 -133 25 -25 42 -29 83 -19 18 5 22
13 22 45 0 35 -3 39 -25 39 -14 0 -25 -4 -25 -10 0 -5 9 -10 21 -10 15 0 20
-5 17 -22 -2 -18 -10 -24 -39 -26 -44 -4 -63 16 -63 65 0 44 24 63 78 63 30 0
37 3 26 10 -20 13 -50 12 -75 -2z"/>
<path d="M2630 1555 l0 -85 45 0 c25 0 45 5 45 10 0 6 -16 10 -35 10 -32 0
-35 2 -35 30 0 27 3 30 30 30 17 0 30 5 30 10 0 6 -13 10 -30 10 -25 0 -30 4
-30 25 0 22 4 25 35 25 19 0 35 5 35 10 0 6 -20 10 -45 10 l-45 0 0 -85z"/>
<path d="M2762 1553 l2 -88 5 75 6 75 47 -72 c26 -40 52 -73 58 -73 6 0 10 34
10 85 0 50 -4 85 -10 85 -6 0 -10 -31 -10 -72 l0 -73 -46 73 c-25 39 -50 72
-55 72 -5 0 -8 -39 -7 -87z"/>
<path d="M2940 1556 l0 -86 36 0 c26 0 43 8 66 30 26 27 30 36 25 67 -8 49
-26 64 -81 70 l-46 6 0 -87z m94 48 c21 -20 20 -73 -1 -96 -9 -10 -30 -18 -50
-18 l-33 0 0 65 0 65 34 0 c19 0 42 -7 50 -16z"/>
<path d="M3100 1555 l0 -85 45 0 c25 0 45 5 45 10 0 6 -16 10 -35 10 -32 0
-35 2 -35 30 0 27 3 30 30 30 17 0 30 5 30 10 0 6 -13 10 -30 10 -25 0 -30 4
-30 25 0 22 4 25 35 25 19 0 35 5 35 10 0 6 -20 10 -45 10 l-45 0 0 -85z"/>
<path d="M3220 1555 c0 -50 4 -85 10 -85 6 0 10 16 10 35 0 28 4 35 19 35 11
0 28 -15 41 -35 12 -19 26 -35 31 -35 5 0 -2 18 -15 39 -22 34 -23 41 -11 51
21 18 18 57 -4 70 -11 5 -33 10 -50 10 l-31 0 0 -85z m84 49 c9 -22 -11 -44
-40 -44 -20 0 -24 5 -24 30 0 26 3 30 29 30 17 0 31 -6 35 -16z"/>
<path d="M2473 1095 c0 -49 2 -71 4 -47 l4 42 49 0 49 0 4 -42 c2 -24 4 -2 4
47 0 50 -2 73 -4 53 l-4 -38 -49 0 -49 0 -4 38 c-2 20 -4 -3 -4 -53z"/>
<path d="M2655 1155 c-50 -49 -17 -145 50 -145 38 0 75 42 75 85 0 43 -37 85
-75 85 -14 0 -37 -11 -50 -25z m99 -17 c34 -48 7 -108 -48 -108 -41 0 -60 21
-60 65 0 44 19 65 60 65 23 0 38 -7 48 -22z"/>
<path d="M2820 1095 c0 -50 4 -85 10 -85 6 0 10 30 11 68 l1 67 32 -70 33 -69
26 58 c15 32 27 62 27 67 0 4 3 10 8 12 4 3 6 -26 4 -64 -2 -45 0 -69 7 -69 7
0 11 31 11 85 0 49 -4 85 -10 85 -5 0 -24 -32 -42 -72 l-33 -71 -29 71 c-40
99 -56 95 -56 -13z"/>
<path d="M3040 1095 l0 -85 40 0 c22 0 40 5 40 10 0 6 -16 10 -35 10 -32 0
-35 2 -35 30 0 27 3 30 30 30 17 0 30 5 30 10 0 6 -13 10 -30 10 -25 0 -30 4
-30 25 0 22 4 25 35 25 19 0 35 5 35 10 0 6 -18 10 -40 10 l-40 0 0 -85z"/>
<path d="M3163 1095 c0 -49 2 -71 4 -47 2 23 6 42 9 42 2 0 20 -18 40 -40 20
-22 41 -40 46 -40 6 0 -6 18 -26 40 -20 22 -36 43 -36 48 1 4 14 22 30 41 16
19 27 37 25 40 -3 3 -19 -12 -36 -32 -17 -20 -34 -37 -39 -37 -5 0 -11 17 -13
38 -2 20 -4 -3 -4 -53z"/>
<path d="M3304 1095 c0 -49 1 -71 3 -48 2 23 2 64 0 90 -2 26 -3 8 -3 -42z"/>
<path d="M3360 1094 l0 -87 47 6 c58 6 83 33 83 87 0 49 -35 80 -91 80 l-39 0
0 -86z m104 44 c35 -49 7 -108 -50 -108 l-34 0 0 65 0 65 34 0 c25 0 39 -7 50
-22z"/>
<path d="M3535 1160 c-23 -25 -14 -45 30 -71 20 -12 35 -29 35 -40 0 -16 -7
-19 -41 -19 -24 0 -38 -4 -34 -10 10 -16 62 -12 80 6 23 23 15 45 -25 72 -45
30 -46 56 -2 60 18 2 30 8 27 13 -10 16 -51 10 -70 -11z"/>
<path d="M562 5868 c-15 -128 -15 -128 2 -128 13 0 36 91 36 146 0 12 10 3 28
-27 47 -82 80 -126 108 -148 16 -12 38 -40 51 -63 13 -22 46 -67 73 -98 27
-32 63 -82 78 -111 16 -30 38 -70 50 -89 12 -19 22 -41 22 -48 0 -7 16 -35 35
-63 20 -27 48 -75 63 -106 29 -62 45 -72 50 -33 2 16 -12 49 -38 90 -22 36
-52 90 -66 120 -14 30 -29 62 -34 70 -5 8 -24 40 -41 70 -35 59 -67 102 -112
152 -15 16 -35 44 -43 60 -9 17 -35 50 -57 73 -70 72 -127 160 -127 197 0 6
37 8 92 7 81 -3 93 -1 96 14 3 15 -9 17 -125 17 l-129 0 -12 -102z"/>
</g>
</svg>
